<?xml version="1.0" encoding="utf-8" ?><svg xmlns="http://www.w3.org/2000/svg" xmlns:xlink="http://www.w3.org/1999/xlink" width="1024" height="1024" viewBox="0 0 1024 1024"><path fill="#E7E7E6" d="M131.585 594.462C143.602 597.973 154.883 606.795 161.321 617.656C164.908 623.706 164.702 632.481 165.069 639.618C166.387 640.979 167.749 642.445 169.144 643.714C175.134 630.132 180.956 617.616 195.694 611.761C199.046 610.43 218.553 605.925 219.474 610.842C221.059 619.296 217.855 630.905 213.326 638.099C206.645 649.58 194.495 652.343 183.15 657.301C182.579 657.55 182.689 658.976 182.722 659.301C185.13 660.661 192.43 661.101 195.47 661.473C210.486 663.311 223.947 677.751 226.901 692.362C216.869 697.368 207.341 699.469 196.253 696.037C184.751 692.476 179.075 681.319 171.298 675.325C169.146 677.984 172.601 689.866 173.617 693.436C177.148 705.846 162.338 728.04 150.469 731.116C148.782 730.966 147.606 730.152 146.578 728.804C133.201 711.27 138.026 697.789 146.285 679.916C148.106 679.606 150.929 674.902 152.241 673.235C149.994 673.347 147.565 673.432 146.918 676.012L146.403 676.08C142.723 676.99 137.855 679.237 134.462 680.953C118.337 689.111 101.619 681.233 88.7149 670.33C104.705 652.653 117.901 644.722 139.853 653.871C141.514 654.563 146.179 652.506 148.482 653.044L148.654 652.835C135.739 637.4 125.652 631.162 127.983 608.533C128.5 603.516 129.229 599.112 131.585 594.462ZM164.597 662.742C166.578 662.525 168.978 662.136 170.878 662.071C171.829 662.032 183.931 661.896 179.791 659.561C177.86 658.472 180.227 657.783 176.153 657.999C171.788 659.326 168.695 660.754 164.597 662.742ZM156.467 660.111C155.71 659.008 153.292 655.872 151.999 655.965C149.347 656.157 148.164 655.271 145.416 655.007L145.747 655.769C146.602 657.951 154.207 659.849 156.467 660.111ZM167.707 675.058C169.908 670.904 166.739 669.065 163.303 666.467C163.203 667.954 166.792 674.923 167.707 675.058Z"/><path fill="#FDFDFD" d="M146.403 676.08C146.045 676.03 144.285 675.978 144.151 675.704C144.306 675.367 148.469 672.261 149.083 671.791C152.26 669.359 155.567 667.102 158.989 665.029C157.132 667.374 153.615 671.186 152.241 673.235C149.994 673.347 147.565 673.432 146.918 676.012L146.403 676.08Z"/><path fill="#FDFDFD" fill-opacity="0.98823529" d="M176.153 657.999C180.227 657.783 177.86 658.472 179.791 659.561C183.931 661.896 171.829 662.032 170.878 662.071C168.978 662.136 166.578 662.525 164.597 662.742C168.695 660.754 171.788 659.326 176.153 657.999Z"/><path fill="#FDFDFD" d="M164.087 645.407C164.419 645.682 164.546 645.855 164.972 645.808C165.205 645.782 165.547 645.7 165.803 645.749C166.487 645.881 167.29 646.496 167.6 647.121C168.203 648.337 166.092 652.001 165.577 653.279C165.391 653.742 165.193 654.2 164.984 654.652C161.427 664.383 163.971 647.075 164.087 645.407Z"/><path fill="#FDFDFD" fill-opacity="0.96862745" d="M145.416 655.007C148.164 655.271 149.347 656.157 151.999 655.965C153.292 655.872 155.71 659.008 156.467 660.111C154.207 659.849 146.602 657.951 145.747 655.769L145.416 655.007Z"/><path fill="#FDFDFD" fill-opacity="0.98823529" d="M163.303 666.467C166.739 669.065 169.908 670.904 167.707 675.058C166.792 674.923 163.203 667.954 163.303 666.467Z"/><path fill="#E7E7E6" d="M330.588 808.176L331.297 808.266C350.691 810.899 366.731 829.252 365.464 847.999C365.21 851.762 365.569 854.704 369.738 855.465C373.264 854.1 381.044 811.101 417.881 818.842C419.223 830.368 417.776 841.303 410.619 850.915C401.81 862.747 389.381 860.903 380.371 871.088C396.172 872.509 410.86 870.207 422.192 884.038C424.619 887 430.757 897.143 429.592 899.81C426.101 907.796 406.935 907.597 400.847 905.417C389.102 901.211 383.465 892.29 374.594 886.221C373.938 886.773 373.551 886.927 373.622 887.915C374.167 895.248 377.794 902.396 378.852 909.597C380.301 919.459 374.995 929.657 367.861 936.205C363.743 939.986 358.353 947.443 353.091 940.951C346.285 932.554 341.388 923.918 342.702 912.783C343.545 904.657 347.69 897.574 351.297 890.416C351.571 888.265 351.738 887.682 352.313 885.567C344.608 882.996 328.978 912.462 290.889 885.505C299.489 872.293 316.165 860.575 332.406 864.158C336.89 865.147 343.053 867.702 345.894 866.205C346.743 865.757 346.918 866.133 348.386 866.595C347.681 866.863 346.167 867.411 346.143 868.328C347.71 869.775 357.909 872.56 360.5 873.2C358.631 871.439 356.853 869.714 354.835 868.118C353.202 866.826 352.083 868.307 349.744 867.337L350.722 866.169C350.237 863.169 335.996 852.102 333.124 848.12C324.995 836.846 327.183 820.446 330.588 808.176ZM367.557 866.388C367.776 865.65 371.751 856.683 366.516 857.973C366.21 858.048 365.845 857.967 365.572 857.932C365.513 860.982 365.48 865.225 366.164 868.24C366.18 868.308 366.368 868.383 366.441 868.359C367.026 868.171 367.391 866.809 367.557 866.388ZM372.5 889.458C373.568 884.3 371.474 880.723 366.578 878.695C367.176 880.469 370.855 888.641 372.214 889.474C372.31 889.469 372.405 889.464 372.5 889.458ZM369.971 872.621C369.63 872.831 369.421 872.882 369.275 873.193C369.449 873.962 372.74 873.29 373.131 873.23C374.755 872.861 379.276 872.737 378.507 869.832C377.105 868.419 371.215 871.875 369.971 872.621Z"/><path fill="#FDFDFD" d="M352.313 885.567C353.164 883.801 351.904 884.522 351.74 883.216C351.962 882.678 355.681 879.995 356.28 879.544L360.629 876.343C359.481 879.315 353.929 889.482 351.297 890.416C351.571 888.265 351.738 887.682 352.313 885.567Z"/><path fill="#FDFDFD" fill-opacity="0.98431373" d="M365.572 857.932C365.845 857.967 366.21 858.048 366.516 857.973C371.751 856.683 367.776 865.65 367.557 866.388C367.391 866.809 367.026 868.171 366.441 868.359C366.368 868.383 366.18 868.308 366.164 868.24C365.48 865.225 365.513 860.982 365.572 857.932Z"/><path fill="#FDFDFD" fill-opacity="0.97647059" d="M366.578 878.695C371.474 880.723 373.568 884.3 372.5 889.458C372.405 889.464 372.31 889.469 372.214 889.474C370.855 888.641 367.176 880.469 366.578 878.695Z"/><path fill="#FDFDFD" fill-opacity="0.97647059" d="M369.971 872.621C371.215 871.875 377.105 868.419 378.507 869.832C379.276 872.737 374.755 872.861 373.131 873.23C372.064 873.003 371.055 872.768 369.971 872.621Z"/><path fill="#FDFDFD" fill-opacity="0.98823529" d="M369.971 872.621C371.055 872.768 372.064 873.003 373.131 873.23C372.74 873.29 369.449 873.962 369.275 873.193C369.421 872.882 369.63 872.831 369.971 872.621Z"/><path fill="#E7E7E6" d="M689.161 259.841C696.721 263.711 703.943 269.343 709.451 275.797C719.289 287.324 717.223 298.842 715.93 312.844C714.784 314.511 712.585 325.891 712.001 328.672C713.846 326.545 717.423 322.702 717.958 319.778C717.931 319.929 717.809 316.592 717.832 316.167L719.349 316.726C720.575 315.787 724.871 308.758 725.688 307.335C736.191 289.042 747.794 284.852 768.338 287.134C770.474 287.371 774.244 287.995 775.849 289.5C777.08 294.069 772.269 304.192 769.964 308.259C764.478 317.939 756.935 324.011 746.143 326.872C741.284 328.16 736.462 327.68 731.943 329.982C731.655 331.254 732.059 331.476 732.666 332.617C734.06 333.14 735.836 334.364 737.052 334.676C755.064 339.286 768.612 354.265 768.272 373.656C744.361 378.994 734.924 372.775 722.196 352.565C721.034 350.72 719.511 347.711 717.98 346.322C717.682 346.495 717.186 346.743 716.961 346.962L716.351 347.54C715.965 349.243 716.256 352.735 716.584 354.458C720.507 375.072 705.53 392.052 686.263 397.921C675.707 372.884 678.089 366.144 693.68 344.817C695.759 344.377 703.867 334.916 705.702 332.779C704.353 333.428 692.886 339.728 692.728 340.193C693.325 340.998 693.268 340.483 694.192 340.849L694.783 341.088C689.808 340.324 681.38 347.493 672 347.806C655.121 348.369 647.34 340.009 635.714 329.935C646.121 319.948 664.365 310.186 679.195 314.934C683.692 316.374 691.339 321.588 695.235 318.529C695.445 317.898 696.104 316.248 695.668 315.661C680.302 295.023 679.196 284.342 689.161 259.841ZM703.775 328.089C709.018 330.761 699.538 320.12 699.474 320.042C693.997 324.683 698.399 325.212 703.775 328.089Z"/><path fill="#FDFDFD" d="M732.666 332.617C731.563 335.169 721.3 331.867 717.748 331.989C711.09 332.217 719.028 329.157 721.49 329.392C723.241 329.558 729.794 327.929 731.63 328.701C731.905 329.044 731.889 329.579 731.943 329.982C731.655 331.254 732.059 331.476 732.666 332.617Z"/><path fill="#FDFDFD" d="M716.351 347.54C715.962 347.801 715.612 348.058 715.252 348.352C714.864 348.04 711.986 334.841 711.846 333.264C712.673 334.659 714.014 337.309 714.831 338.567C717.514 342.699 716.401 342.37 716.838 345.985L716.961 346.962L716.351 347.54Z"/><path fill="#FDFDFD" fill-opacity="0.98823529" d="M699.474 320.042C699.538 320.12 709.018 330.761 703.775 328.089C698.399 325.212 693.997 324.683 699.474 320.042Z"/><path fill="#838266" d="M616.859 670.219C626.961 669.457 643.544 671.074 651.624 678.393C652.335 679.036 652.572 679.276 653.664 679.146C665.88 677.689 677.627 675.794 689.971 675.827L689.935 684.732C677.51 682.331 661.224 681.204 649.453 686.73C634.878 707.836 608.979 721.454 585.788 731.524C572.92 737.218 537.889 748.89 523.899 750.195C543.399 709.795 569.372 676.304 616.859 670.219Z"/><path fill="#838266" d="M304.297 316.724C306.099 317.765 309.442 321.166 311.533 322.813C318.609 328.386 327.086 335.114 335.274 338.771C336.752 339.431 341.948 340.083 343.626 340.298C365.161 343.071 384.21 357.909 396.973 374.772C411.835 394.409 419.256 416.695 425.666 440.143C426.509 443.225 429.599 452.117 429.21 454.675L428.313 454.336C390.402 435.539 353.222 400.708 335.841 361.665C333.292 355.941 331.878 348.701 330.818 342.54C325.419 338.462 307.429 328.363 300.671 324.189C301.798 321.333 302.849 319.426 304.297 316.724Z"/><path fill="#838266" d="M951.832 448.941C952.652 452.755 951.543 461.392 951.262 465.582C948.237 510.637 926.606 560.513 878.893 573.331C871.197 582.912 858.26 597.825 846.945 602.734L846.065 602.369L843.746 596.535C846.572 594.628 850.6 592.796 853.806 590.659C862.139 585.105 867.542 578.824 873.795 571.286C873.838 569.301 873.9 567.316 873.979 565.332C874.802 544.944 881.918 529.265 891.974 512.061C906.976 486.393 930.3 468.738 951.832 448.941Z"/><path fill="#D4A49B" d="M862.373 903.7C873.273 902.04 893.001 905.561 904.031 907.855C901.516 912.53 886.625 931.595 882.989 935.997C869.606 952.199 851.882 959.088 831.416 960.924C819.484 961.267 800.656 958.879 789.099 955.011C790.813 952.461 792.248 950.782 794.175 948.471C814.1 924.568 829.358 906.679 862.373 903.7Z"/><path fill="#D4A49B" d="M360.366 585.689C371.472 584.586 389.835 587.121 400.852 590.385C396.951 597.091 384.449 612.928 379.524 619.485C368.074 634.732 348.458 641.706 329.846 643.537C315.028 643.8 301.647 641.124 287.579 636.929C309.4 612.334 323.288 589.473 360.366 585.689Z"/><path fill="#333E3D" d="M99.6002 82.6695C130.928 80.7676 152.304 137.99 136.304 161.498C140.509 169.089 147.73 183.353 148.313 191.805C146.575 192.477 144.637 193.46 142.845 193.311L142.396 192.391C140.656 182.459 137.228 171.766 131.648 163.304C111.913 157.651 94.8964 136.906 88.9335 117.759C84.8714 104.716 82.9648 87.3369 99.6002 82.6695Z"/><path fill="#333E3D" d="M482.097 46.6303C482.78 46.5524 483.464 46.4906 484.15 46.4448C488.214 46.1907 494.208 47.4791 496.902 50.425C509.427 64.1236 495.292 88.4037 485.304 98.6892C475.203 109.091 459.736 119.122 445.746 119.651C440.894 126.533 438.615 130.907 435.06 138.379C433.761 141.555 432.363 144.525 430.912 147.632C429.147 146.733 427.325 145.699 425.577 144.747C429.748 133.424 434.884 127.551 441.104 117.813C440.347 116.436 439.816 114.947 439.532 113.401C434.957 89.622 457.369 51.608 482.097 46.6303Z"/><path fill="#C5AE88" d="M898.315 121.304C912.393 119.967 924.895 130.282 926.255 144.357C927.616 158.433 917.321 170.952 903.248 172.335C889.142 173.722 876.587 163.398 875.223 149.29C873.86 135.181 884.205 122.644 898.315 121.304Z"/><path fill="#C5AE88" d="M147.975 918.35C161.909 916.268 174.904 925.841 177.046 939.765C179.189 953.69 169.671 966.726 155.756 968.928C141.756 971.143 128.624 961.555 126.468 947.546C124.313 933.537 133.957 920.446 147.975 918.35Z"/><path fill="#C5AE88" d="M520.639 315.798C534.637 314.236 547.249 324.322 548.803 338.321C550.357 352.32 540.264 364.926 526.265 366.473C512.276 368.018 499.681 357.935 498.128 343.946C496.575 329.958 506.652 317.358 520.639 315.798Z"/><path fill="#C5AE88" d="M971.246 701.348C985.22 699.843 997.771 709.943 999.291 723.915C1000.81 737.887 990.725 750.45 976.754 751.984C962.763 753.522 950.177 743.417 948.655 729.424C947.133 715.43 957.251 702.856 971.246 701.348Z"/><path fill="#C5AE88" d="M130.006 380.281C143.999 378.268 156.947 388.058 158.824 402.07C160.7 416.082 150.786 428.934 136.756 430.675C122.918 432.392 110.279 422.641 108.427 408.82C106.576 394.999 116.204 382.266 130.006 380.281Z"/><path fill="#FDFDFD" fill-opacity="0.94901961" d="M715.93 312.844C717.034 314.305 717.105 314.46 717.832 316.167C717.809 316.592 717.931 319.929 717.958 319.778C717.423 322.702 713.846 326.545 712.001 328.672C712.585 325.891 714.784 314.511 715.93 312.844Z"/><path fill="#FDFDFD" fill-opacity="0.98823529" d="M694.783 341.088L694.192 340.849C693.268 340.483 693.325 340.998 692.728 340.193C692.886 339.728 704.353 333.428 705.702 332.779C703.867 334.916 695.759 344.377 693.68 344.817C693.989 344.239 695.57 341.937 695.293 341.269C695.072 341.101 695.227 341.194 694.783 341.088Z"/><defs><linearGradient id="gradient_0" gradientUnits="userSpaceOnUse" x1="351.91751" y1="866.97925" x2="353.19217" y2="872.49542"><stop offset="0" stop-color="white" stop-opacity="0.95686275"/><stop offset="1" stop-color="#FFFFFD"/></linearGradient></defs><path fill="url(#gradient_0)" d="M348.386 866.595L349.744 867.337C352.083 868.307 353.202 866.826 354.835 868.118C356.853 869.714 358.631 871.439 360.5 873.2C357.909 872.56 347.71 869.775 346.143 868.328C346.167 867.411 347.681 866.863 348.386 866.595Z"/><path fill="#FDFDFD" fill-opacity="0.94901961" d="M146.918 676.012C147.565 673.432 149.994 673.347 152.241 673.235C150.929 674.902 148.106 679.606 146.285 679.916C146.642 678.568 147.356 677.319 146.918 676.012Z"/></svg>